<?xml version="1.0" encoding="utf-8"?>
<!-- Generator: Adobe Illustrator 19.1.0, SVG Export Plug-In . SVG Version: 6.00 Build 0)  -->
<svg version="1.1" id="Layer_1" xmlns="http://www.w3.org/2000/svg" xmlns:xlink="http://www.w3.org/1999/xlink" x="0px" y="0px"
	 viewBox="0 0 40 40" style="enable-background:new 0 0 40 40;" xml:space="preserve">
<style type="text/css">
	.st0{fill:#FFFFFF;}
	.st1{fill:#221E1F;}
	.st2{fill:#F8A31F;}
	.st3{fill:#42291B;}
	.st4{fill:#604B44;}
	.st5{fill:#0FBD8C;}
	.st6{fill:#EDF2F4;}
	.st7{fill:#221E1F;stroke:#221E1F;stroke-width:0.1096;stroke-miterlimit:10;}
</style>
<g>
	<g id="XMLID_319_">
		<g>
			<path id="XMLID_199_" class="st0" d="M4.3,12.4c0,0,0.9,0.2,2.4,1C8.1,14.1,9,14.8,9,14.8l0.2-0.3c0,0-0.9-0.7-2.4-1.4
				c-1.6-0.8-2.5-1-2.5-1L4.3,12.4"/>
			<path id="XMLID_198_" class="st0" d="M4.5,16.3c0.1,0,1.6,0.2,2.4,0.2L9,16.4l0-0.3l-2.1,0.2c-0.7,0-2.3-0.2-2.3-0.2L4.5,16.3"/>
			<path id="XMLID_197_" class="st0" d="M35,14.4c-0.9,0.3-2.7,0.5-2.7,0.5l0,0.3c0.1,0,1.8-0.2,2.7-0.5c1.1-0.3,1.8-0.9,1.9-1
				l-0.2-0.3C36.8,13.5,36,14.1,35,14.4"/>
			<path id="XMLID_196_" class="st0" d="M32.4,17.5c0,0,1.1,0.5,2.2,0.6c1.1,0.1,1.8,0.1,1.8,0.1l0-0.3c0,0-0.7,0-1.8-0.1
				c-1.1-0.1-2.1-0.6-2.1-0.6L32.4,17.5"/>
			<path id="XMLID_195_" class="st0" d="M34.5,16c-0.3-1.5-1.4-2.4-2.3-3c-0.3-0.2-0.7-0.4-0.9-0.5c-0.1-0.7-0.3-2.1-1.2-3.8
				c-0.7-1.2-2.6-2.8-3.1-3.3C26.9,5,25.9,0,25.9,0l0,0c0,0,0-0.1,0-0.1s-3.4,3.1-3.6,3.3c-0.2,0.1-1.4,0.3-1.5,0.3
				c-0.6-0.1-1.2-0.1-1.8-0.1c-1.5,0-3,0.4-3.6,0.5c-0.4-0.3-4.7-3.3-4.7-3.3l0,0L9.6,0c0,0,0.7,8,0.7,8.4C9.7,9.2,7.8,11.9,7.8,15
				c0,1.1,0.2,2.2,0.9,3.3c0.8,1.5,2,2.7,3.5,3.7c-0.8,0.3-1.5,0.8-2.2,1.4L9.2,24c-0.2,0.1-0.4,0.3-0.6,0.4c-0.6,0.4-1.5,0.9-1.5,2
				c0,0.2,0,0.4,0.1,0.6c0.1,0.3,0.2,0.8,0.4,1.4c-0.6-0.2-1.1-0.6-1.6-1c-0.8-0.7-1.3-1.7-1.8-2.5c-0.4-0.7-0.7-1.3-1.2-1.7
				c-0.7-0.7-1.4-0.6-1.8-0.3C0.5,23.2,0,24.3,0,25.6c0,0.1,0,0.2,0,0.3c0.1,1.9,1.3,4.4,4.3,5.6c0.8,0.3,1.5,0.5,2.2,0.6
				c-0.3,0.1-0.7,0.2-0.9,0.3c-0.4-0.2-1.4-0.5-2.4,0.1c-0.9,0.5-0.9,1.7-0.2,3.4c0.9,2,3,4.6,4.8,4.1c0.8-0.2,1.4-0.7,1.6-1.3
				c0.1-0.2,0.1-0.4,0.1-0.7c0-0.8-0.4-1.5-0.7-2.1c2.5-0.7,5-2.1,5.9-2.7c0.6,0.6,1.2,1.2,1.8,1.9c1.8,1.9,4.5,4.3,4.6,4.4l0.1,0.1
				l0.2,0c0.1,0,2.7,0.4,4.8,0.5c2.3,0.1,3.3-0.2,3.4-0.9c0.2-0.9,0.1-1.7-0.4-2.3c-0.7-0.9-1.9-1.3-3.8-1.4c-0.8,0-1.5,0-1.9,0.1
				c-1.1-1-1.9-1.8-2.4-2.2c-0.5-0.5-1.3-1.3-2.4-2.4c0.4-0.4,0.8-0.8,1.3-1.6c0.1-0.1,0.2-0.3,0.3-0.5c0.2,0.2,0.6,0.5,1.2,1.1
				c0.7,0.8,1.4,1.1,2.2,1.1c0.7,0,1.3-0.3,1.8-0.5l0.1,0c0.7-0.3,3.1-1.5,3.4-3.1c0.1-0.4,0-1-0.6-1.6c-0.5-0.4-0.9-0.7-1.4-0.7
				c-0.8-0.1-1.4,0.4-2,0.8c-0.4,0.3-0.7,0.5-1.1,0.6c-0.1,0-0.2,0.1-0.3,0.1c-0.4,0-0.8-0.4-1.2-1c-0.2-0.2-0.3-0.5-0.5-0.7
				c-0.1-0.1-0.2-0.2-0.3-0.3c1,0,2.1-0.1,3.2-0.3c4.9-0.8,7.2-2.8,8.3-4.3c0.7-1,1.1-2.2,1.1-3.2C34.6,16.4,34.6,16.2,34.5,16"/>
			<path id="XMLID_194_" class="st1" d="M34.5,16c-0.3-1.5-1.4-2.4-2.3-3c-0.3-0.2-0.7-0.4-0.9-0.5c-0.1-0.7-0.3-2.1-1.2-3.8
				c-0.7-1.2-2.6-2.8-3.1-3.3C26.9,5,25.9,0,25.9,0l0,0c0,0,0-0.1,0-0.1s-3.4,3.1-3.6,3.3c-0.2,0.1-1.4,0.3-1.5,0.3
				c-0.6-0.1-1.2-0.1-1.8-0.1c-1.5,0-3,0.4-3.6,0.5c-0.4-0.3-4.7-3.3-4.7-3.3l0,0L9.6,0c0,0,0.7,8,0.7,8.4C9.7,9.2,7.8,11.9,7.8,15
				c0,1.1,0.2,2.2,0.9,3.3c0.8,1.5,2,2.7,3.5,3.7c-0.8,0.3-1.5,0.8-2.2,1.4L9.2,24c-0.2,0.1-0.4,0.3-0.6,0.4c-0.6,0.4-1.5,0.9-1.5,2
				c0,0.2,0,0.4,0.1,0.6c0.1,0.3,0.2,0.8,0.4,1.4c-0.6-0.2-1.1-0.6-1.6-1c-0.8-0.7-1.3-1.7-1.8-2.5c-0.4-0.7-0.7-1.3-1.2-1.7
				c-0.7-0.7-1.4-0.6-1.8-0.3C0.5,23.2,0,24.3,0,25.6c0,0.1,0,0.2,0,0.3c0.1,1.9,1.3,4.4,4.3,5.6c0.8,0.3,1.5,0.5,2.2,0.6
				c-0.3,0.1-0.7,0.2-0.9,0.3c-0.4-0.2-1.4-0.5-2.4,0.1c-0.9,0.5-0.9,1.7-0.2,3.4c0.9,2,3,4.6,4.8,4.1c0.8-0.2,1.4-0.7,1.6-1.3
				c0.1-0.2,0.1-0.4,0.1-0.7c0-0.8-0.4-1.5-0.7-2.1c2.5-0.7,5-2.1,5.9-2.7c0.6,0.6,1.2,1.2,1.8,1.9c1.8,1.9,4.5,4.3,4.6,4.4l0.1,0.1
				l0.2,0c0.1,0,2.7,0.4,4.8,0.5c2.3,0.1,3.3-0.2,3.4-0.9c0.2-0.9,0.1-1.7-0.4-2.3c-0.7-0.9-1.9-1.3-3.8-1.4c-0.8,0-1.5,0-1.9,0.1
				c-1.1-1-1.9-1.8-2.4-2.2c-0.5-0.5-1.3-1.3-2.4-2.4c0.4-0.4,0.8-0.8,1.3-1.6c0.1-0.1,0.2-0.3,0.3-0.5c0.2,0.2,0.6,0.5,1.2,1.1
				c0.7,0.8,1.4,1.1,2.2,1.1c0.7,0,1.3-0.3,1.8-0.5l0.1,0c0.7-0.3,3.1-1.5,3.4-3.1c0.1-0.4,0-1-0.6-1.6c-0.5-0.4-0.9-0.7-1.4-0.7
				c-0.8-0.1-1.4,0.4-2,0.8c-0.4,0.3-0.7,0.5-1.1,0.6c-0.1,0-0.2,0.1-0.3,0.1c-0.4,0-0.8-0.4-1.2-1c-0.2-0.2-0.3-0.5-0.5-0.7
				c-0.1-0.1-0.2-0.2-0.3-0.3c1,0,2.1-0.1,3.2-0.3c4.9-0.8,7.2-2.8,8.3-4.3c0.7-1,1.1-2.2,1.1-3.2C34.6,16.4,34.6,16.2,34.5,16"/>
			<path id="XMLID_193_" class="st2" d="M25.1,23.7c7.4-1.2,9.3-5.4,8.9-7.6c-0.4-2.3-3.1-3.2-3.1-3.2s0-1.8-1.2-3.9
				c-0.7-1.3-3.2-3.3-3.2-3.3l-1-4.6l-3,2.7l-1.7,0.4c-0.6-0.1-1.3-0.1-2-0.1c-1.9,0-3.7,0.5-3.7,0.5l-4.9-3.4l0.6,7.4
				c0.3-0.3-4.3,4.9-1.7,9.4c1.2,2.1,3.2,3.8,5.6,4.8L14.7,23c-0.1-0.1-0.3-0.2-0.5-0.3c-1.9-0.8-3,0.5-4.6,1.8
				c-0.9,0.7-2.1,1-1.8,2.4c0.1,0.5,0.4,1.5,0.9,2.3l0,0c-0.9-0.2-2-0.6-3-1.5c-2.1-2-2.6-5.2-4.2-4.4c-1.5,0.8-1.7,5.9,3,7.6
				c1.6,0.6,3.1,0.7,4.3,0.7l0,0l1-0.5c-0.3,0.2-0.7,0.4-1.2,0.7l-1.4,0.5l0,0.1c-0.8,0.3-1.6,0.5-1.6,0.5s-0.9-0.7-2-0.1
				c-1.7,1,2,7.1,4.1,6.5c2.6-0.7,0.6-3.2,0.2-3.8c3.3-0.7,6.8-3.1,6.8-3.1l-0.1,0l0.1,0c0.6,0.6,1.4,1.3,2.2,2.2
				c1.8,1.9,4.6,4.3,4.6,4.3s7.4,1.1,7.7,0c0.9-3.8-5.7-2.9-5.7-2.9s-1.7-1.6-2.5-2.4c-0.7-0.7-1.9-1.9-2.8-2.9l0.1-0.1
				c0.5-0.3,1-0.9,1.6-1.8c0.2-0.3,0.4-0.7,0.6-1l0,0.1c0,0,0.5,0.1,1.8,1.5c1.3,1.4,2.3,0.9,3.5,0.4c1.1-0.5,4.2-2.2,2.7-3.7
				c-1.5-1.5-2.4,0.4-3.8,0.8c-1.4,0.4-1.9-1-2.6-1.8c-0.6-0.6-1.2-1-1.4-1.1l0-0.1C21.9,24,23.5,23.9,25.1,23.7"/>
			<path id="XMLID_192_" class="st0" d="M1.7,23.3c-0.9,0.2-1.4,1.9-1,3.4C1,28.1,1.5,29,2.1,29.5c0.7,0.5-0.1-1.2,0.7-1.9
				c0.9-0.7,2.3-0.3,2.3-0.3s-1.1-1.6-1.7-2.6C2.8,23.8,2.6,23.2,1.7,23.3"/>
			<path id="XMLID_191_" class="st0" d="M20,28.4c0,0,1-1-0.9-2.1c-1.9-1.1-2.8-0.1-3.4,0.5c-1.1,1,1.2,2.9,1.2,2.9l1.2,1
				c0,0,0.7-0.6,1.1-1.1C19.5,29.1,20,28.4,20,28.4"/>
			<path id="XMLID_190_" class="st0" d="M16.7,14.7c0,0-3.3,0.2-3.5,2.3c-0.5,5,7.9,7.1,7.9,7.1s3.9,0.3,7.6-1.4
				c3.6-1.7,5.8-3.9,5.3-6.4c-0.5-2.5-3.6-3.2-3.6-3.2l-0.8-1l-3.6,0.9c0,0,0,1.3-1.8,1.6c-1.7,0.3-4.4-1-4.4-1L16.7,14.7"/>
			<path id="XMLID_189_" class="st3" d="M22.5,3.8l3-2.7l0.9,4.5l0,0c0,0,0,0,0.1,0.1c0.2,0.2,0.8,0.7,1.5,1.3
				c0.6,0.6,1.3,1.3,1.6,1.9c1.1,2.1,1.2,3.8,1.2,3.9c0,0,0,0,0,0l0,0l0,0c0,0,0,0,0,0c0.1,0.1,0.8,0.3,1.5,0.8
				c0.7,0.5,1.4,1.3,1.6,2.3c0,0.2,0.1,0.4,0.1,0.6c0,1.1-0.5,2.6-1.9,3.9c-1.4,1.3-3.6,2.5-7,3c-1.3,0.2-2.6,0.3-3.8,0.3
				c-5.5,0-9.8-2.2-12-5.9C8.6,17,8.4,16,8.4,15c0-1.7,0.6-3.3,1.3-4.4c0.3-0.6,0.6-1.1,0.9-1.4c0.1-0.2,0.2-0.3,0.3-0.4
				c0,0,0.1-0.1,0.1-0.1c0,0,0,0,0,0l0,0l0,0l0,0l0,0l0,0c0,0,0,0,0,0c0,0,0,0,0,0c0,0,0,0,0,0c0,0,0,0,0,0l0,0l0,0c0,0,0,0,0,0l0,0
				l0,0l-0.6-7.3l5.7,4l0-0.1l-5.8-4.1l0.6,7.6l0.1-0.1l0,0l0,0l0,0l0,0l0,0l0,0l0,0l0,0l0,0l0,0l0,0l0,0l0,0l0,0l0,0l0,0l0,0l0,0
				l0,0l0,0l0,0l0,0l0,0v0c0,0,0,0,0,0l0,0v0v0l0,0c0,0,0,0,0,0v0l0,0l0,0h0c0,0,0,0,0,0l0,0h0h0l0,0c0,0,0,0,0,0h0l0,0l0,0l0,0l0,0
				l0,0l0,0l0,0l0,0l0,0l0,0l0,0c0,0-0.2,0.2-0.4,0.6c-0.7,1-2.1,3.3-2.1,5.8c0,1,0.2,2.1,0.8,3.1c2.1,3.8,6.5,5.9,12.1,5.9
				c1.2,0,2.5-0.1,3.8-0.3c3.4-0.5,5.6-1.7,7-3.1c1.4-1.3,1.9-2.8,1.9-4c0-0.2,0-0.4-0.1-0.6c-0.2-1.1-1-1.9-1.7-2.5
				c-0.7-0.5-1.4-0.7-1.4-0.7l0,0l0,0c0,0,0,0,0,0c0-0.2,0-1.9-1.2-4c-0.4-0.7-1.1-1.5-1.8-2.1c-0.7-0.7-1.3-1.1-1.3-1.1l0,0l0,0
				l-1-4.6L22.5,3.8L22.5,3.8L22.5,3.8z"/>
			<path id="XMLID_188_" class="st3" d="M22.9,4.5c0,0-1.9-0.5-4-0.5c0,0-0.1,0-0.1,0c-1.9,0-3.7,0.5-3.7,0.5l0,0.1c0,0,0,0,0.1,0
				c0.4-0.1,2-0.5,3.6-0.5c0,0,0.1,0,0.1,0c1,0,2,0.1,2.8,0.3c0.4,0.1,0.7,0.1,0.9,0.2c0.1,0,0.2,0,0.2,0.1
				C22.9,4.6,22.9,4.6,22.9,4.5L22.9,4.5L22.9,4.5z"/>
			<path id="XMLID_187_" class="st0" d="M19.3,9.8c1.1,1.8,0.9,3.9-0.4,4.7c-1.3,0.8-3.3,0-4.3-1.8C13.4,10.9,13.6,8.8,15,8
				C16.3,7.2,18.2,8.1,19.3,9.8"/>
			<path id="XMLID_186_" class="st3" d="M19.3,9.8l-0.1,0.1c0.5,0.8,0.7,1.6,0.7,2.3c0,0.5-0.1,0.9-0.3,1.3
				c-0.2,0.4-0.4,0.7-0.8,0.9l0,0c-0.3,0.2-0.7,0.3-1,0.3c-0.5,0-1.1-0.2-1.6-0.5c-0.5-0.3-1-0.9-1.4-1.5l0,0
				c-0.5-0.8-0.7-1.6-0.7-2.3c0-0.5,0.1-0.9,0.3-1.3c0.2-0.4,0.4-0.7,0.8-0.9c0.3-0.2,0.7-0.3,1.1-0.3c0.5,0,1.1,0.2,1.6,0.5
				c0.5,0.3,1,0.9,1.4,1.5L19.3,9.8l0.1-0.1c-0.4-0.7-0.9-1.2-1.5-1.6c-0.6-0.4-1.2-0.6-1.8-0.6c-0.4,0-0.9,0.1-1.2,0.3
				c-0.4,0.2-0.7,0.6-0.9,1c-0.2,0.4-0.3,0.9-0.3,1.4c0,0.8,0.2,1.7,0.7,2.5l0,0c0.4,0.7,0.9,1.2,1.5,1.6c0.6,0.4,1.2,0.6,1.8,0.6
				c0.4,0,0.9-0.1,1.2-0.3l0,0c0.4-0.2,0.7-0.6,0.9-1c0.2-0.4,0.3-0.9,0.3-1.4c0-0.8-0.2-1.7-0.7-2.5L19.3,9.8z"/>
			<path id="XMLID_185_" class="st0" d="M28.7,8.9c1.1,1.8,1.1,3.8-0.1,4.5c-1.1,0.7-2.9-0.2-4-2c-1.1-1.8-1.1-3.8,0.1-4.5
				C25.9,6.2,27.7,7.1,28.7,8.9"/>
			<path id="XMLID_184_" class="st3" d="M28.7,8.9L28.6,9c0.5,0.9,0.8,1.8,0.8,2.5c0,0.4-0.1,0.8-0.2,1c-0.1,0.3-0.3,0.5-0.6,0.7
				c-0.2,0.1-0.5,0.2-0.7,0.2c-0.5,0-1-0.2-1.6-0.6c-0.5-0.4-1-0.9-1.4-1.6c-0.5-0.9-0.8-1.8-0.8-2.5c0-0.4,0.1-0.8,0.2-1
				c0.1-0.3,0.3-0.5,0.6-0.7c0.2-0.1,0.5-0.2,0.7-0.2c0.5,0,1,0.2,1.6,0.6c0.5,0.4,1,0.9,1.4,1.6L28.7,8.9l-0.1-0.1l0,0l-0.1,0.1
				L28.6,9L28.7,8.9L28.9,9l0,0L29,8.9l-0.1-0.1c-0.4-0.7-1-1.3-1.5-1.7c-0.6-0.4-1.2-0.6-1.7-0.6c-0.3,0-0.6,0.1-0.9,0.2
				c-0.3,0.2-0.6,0.5-0.7,0.8c-0.2,0.3-0.2,0.8-0.2,1.2c0,0.8,0.3,1.8,0.8,2.7c0.4,0.7,1,1.3,1.5,1.7c0.6,0.4,1.2,0.6,1.7,0.6
				c0.3,0,0.6-0.1,0.9-0.2c0.3-0.2,0.6-0.5,0.7-0.8c0.2-0.3,0.2-0.8,0.2-1.2c0-0.8-0.3-1.8-0.8-2.7L28.7,8.9L28.9,9L28.7,8.9z"/>
			<path id="XMLID_183_" class="st1" d="M18.2,12.4c0,0.3-0.3,0.6-0.6,0.6c-0.3,0-0.5-0.3-0.5-0.6c0-0.3,0.3-0.6,0.6-0.6
				C17.9,11.8,18.2,12.1,18.2,12.4"/>
			<path id="XMLID_182_" class="st1" d="M28.1,11.5c0,0.3-0.3,0.6-0.6,0.6c-0.3,0-0.5-0.3-0.5-0.6c0-0.3,0.3-0.6,0.6-0.6
				C27.9,10.9,28.1,11.1,28.1,11.5"/>
			<path id="XMLID_181_" class="st4" d="M23.8,13.7c0.7,0,1.8,0,1.8,0.3c0,0.3-0.7,1.6-1.2,1.7c-0.5,0-2.4-1-2.4-1.6
				C22.1,13.4,23.2,13.6,23.8,13.7"/>
			<path id="XMLID_180_" class="st3" d="M23.8,13.7L23.8,13.7c0.4,0,0.8,0,1.2,0.1c0.2,0,0.3,0,0.4,0.1c0.1,0,0.1,0,0.1,0.1
				c0,0,0,0.1,0,0.1l0,0c0,0,0,0,0,0c0,0.1,0,0.2-0.1,0.4c-0.1,0.2-0.3,0.5-0.5,0.8c-0.1,0.1-0.2,0.2-0.3,0.3
				c-0.1,0.1-0.2,0.1-0.3,0.1l0,0c0,0,0,0,0,0c-0.1,0-0.3-0.1-0.6-0.2c-0.4-0.2-0.8-0.4-1.1-0.7c-0.2-0.1-0.3-0.3-0.4-0.4
				c-0.1-0.1-0.2-0.3-0.2-0.4l0,0c0-0.1,0-0.1,0-0.2c0-0.1,0.1-0.1,0.2-0.1c0.1,0,0.2,0,0.4,0C23.1,13.6,23.5,13.7,23.8,13.7
				L23.8,13.7L23.8,13.7L23.8,13.7L23.8,13.7L23.8,13.7L23.8,13.7L23.8,13.7L23.8,13.7L23.8,13.7c-0.3,0-0.7-0.1-1.1-0.1
				c-0.2,0-0.4,0-0.5,0.1c-0.1,0-0.1,0.1-0.2,0.1c0,0.1-0.1,0.1-0.1,0.2l0,0c0,0.2,0.1,0.3,0.3,0.5c0.3,0.3,0.7,0.6,1.1,0.8
				c0.2,0.1,0.4,0.2,0.6,0.3c0.2,0.1,0.3,0.1,0.4,0.1c0,0,0,0,0,0l0,0l0,0c0.1,0,0.3-0.1,0.4-0.2c0.2-0.2,0.4-0.5,0.6-0.7
				c0.1-0.1,0.1-0.3,0.2-0.4c0-0.1,0.1-0.2,0.1-0.3c0,0,0,0,0,0l0,0c0-0.1,0-0.1-0.1-0.1c-0.1-0.1-0.2-0.1-0.3-0.1
				C24.9,13.6,24.3,13.6,23.8,13.7L23.8,13.7L23.8,13.7L23.8,13.7z"/>
			<path id="XMLID_179_" class="st3" d="M9.3,14.6c0,0-0.9-0.7-2.4-1.4l0,0c-1.6-0.8-2.5-1-2.5-1l-0.1,0.3l0,0c0,0,0.9,0.2,2.4,1
				l0,0c0.7,0.3,1.3,0.7,1.7,1c0.2,0.1,0.4,0.2,0.5,0.3c0.1,0,0.1,0.1,0.1,0.1c0,0,0,0,0,0l0,0l0,0L9.3,14.6L9.3,14.6z"/>
			<path id="XMLID_178_" class="st3" d="M4.5,16.4c0,0,0.4,0,0.8,0.1c0.5,0,1,0.1,1.4,0.1c0,0,0.1,0,0.1,0l0,0l0,0
				c0.4,0,0.9,0,1.4-0.1c0.4,0,0.8-0.1,0.8-0.1L9,16c0,0,0,0-0.1,0c-0.1,0-0.5,0-0.9,0.1c-0.4,0-0.9,0.1-1.2,0.1h0c0,0,0,0-0.1,0
				c-0.4,0-0.9,0-1.4-0.1c-0.2,0-0.4,0-0.6-0.1c-0.1,0-0.1,0-0.2,0c0,0-0.1,0-0.1,0L4.5,16.4L4.5,16.4z"/>
			<path id="XMLID_177_" class="st3" d="M11.7,27.3C11.7,27.3,11.7,27.2,11.7,27.3c0.3-0.2,1.2-0.9,2.1-1.4c0.3-0.2,0.7-0.5,1-0.9
				c0.2-0.2,0.3-0.4,0.4-0.6c0.1-0.2,0.2-0.4,0.2-0.6c0-0.1,0-0.2-0.1-0.3c-0.1-0.2-0.2-0.3-0.3-0.5c-0.2-0.1-0.4-0.3-0.7-0.4l0,0
				c-0.4-0.2-0.8-0.2-1.2-0.2c-0.3,0-0.7,0.1-1,0.2c-0.5,0.2-0.9,0.5-1.3,0.8c-0.4,0.3-0.8,0.7-1.3,1.1l0,0
				c-0.2,0.1-0.4,0.3-0.6,0.4c-0.3,0.2-0.6,0.4-0.9,0.6c-0.1,0.1-0.2,0.3-0.3,0.4c-0.1,0.2-0.1,0.4-0.1,0.6c0,0.1,0,0.3,0.1,0.5l0,0
				l0,0c0.2,0.6,0.5,1.7,1.1,2.7C9,30,9.4,30.5,9.8,30.8c0.2,0.2,0.4,0.3,0.7,0.4c0.2,0.1,0.5,0.1,0.8,0.1c0.3,0,0.7-0.1,1-0.2
				c0.4-0.2,0.7-0.4,0.9-0.6c0.1-0.1,0.2-0.2,0.2-0.4c0-0.1,0.1-0.3,0.1-0.4c0-0.2,0-0.3-0.1-0.5c-0.1-0.3-0.3-0.6-0.4-0.8
				c-0.3-0.4-0.6-0.8-1-1.1c-0.2-0.2-0.3-0.3-0.4-0.4c-0.1-0.1-0.2-0.2-0.2-0.3l-0.3,0.2c0.1,0.1,0.1,0.2,0.2,0.3
				c0.1,0.2,0.3,0.4,0.5,0.6c0.3,0.3,0.7,0.7,0.9,1.1c0.1,0.2,0.2,0.4,0.3,0.6c0.1,0.2,0.1,0.4,0.1,0.5c0,0.1,0,0.2,0,0.3
				c0,0.1-0.1,0.3-0.3,0.4c-0.1,0.1-0.4,0.3-0.6,0.4C11.9,31,11.6,31,11.3,31c-0.2,0-0.5,0-0.7-0.1c-0.4-0.1-0.7-0.4-1-0.7
				c-0.5-0.5-0.8-1.1-1.1-1.8c-0.3-0.6-0.5-1.2-0.5-1.6l0,0c0-0.1-0.1-0.3-0.1-0.4c0-0.2,0.1-0.4,0.2-0.6c0.1-0.1,0.2-0.2,0.3-0.3
				c0.2-0.2,0.4-0.3,0.6-0.4c0.2-0.1,0.5-0.3,0.7-0.5l0,0c0.6-0.5,1.2-1,1.7-1.4c0.3-0.2,0.5-0.3,0.8-0.4c0.3-0.1,0.5-0.2,0.8-0.2
				c0.3,0,0.7,0.1,1,0.2l0,0c0.3,0.1,0.5,0.3,0.7,0.4c0.1,0.1,0.1,0.1,0.1,0.2c0,0.1,0,0.2,0,0.2c0,0.1,0,0.3-0.1,0.5
				c-0.1,0.2-0.3,0.5-0.6,0.7c-0.2,0.2-0.5,0.4-0.7,0.6c-1,0.7-2.1,1.4-2.1,1.4L11.7,27.3L11.7,27.3z"/>
			<path id="XMLID_176_" class="st3" d="M20.4,24.1C20.4,24.1,20.4,24.1,20.4,24.1c0.2,0.1,0.8,0.5,1.4,1.1c0.3,0.3,0.6,0.8,0.9,1.2
				c0.2,0.2,0.3,0.4,0.6,0.5c0.2,0.1,0.4,0.2,0.7,0.2c0.2,0,0.3,0,0.5-0.1c0.5-0.2,1-0.5,1.4-0.8c0.4-0.3,0.8-0.6,1.3-0.6
				c0.3,0,0.7,0.2,1.1,0.6c0.3,0.3,0.4,0.6,0.4,0.9c0,0.3-0.1,0.6-0.3,0.9c-0.6,0.9-2,1.6-2.7,1.9c-0.6,0.3-1.1,0.5-1.7,0.5
				c-0.5,0-1.1-0.2-1.7-0.9c-1.3-1.4-1.8-1.5-1.8-1.5l0,0.1l0,0l0,0l0,0l0,0l0,0c0,0,0.5,0.1,1.8,1.5c0.7,0.7,1.2,0.9,1.8,0.9
				c0.6,0,1.1-0.3,1.7-0.5c0.5-0.2,1.2-0.6,1.9-1.1c0.3-0.3,0.6-0.5,0.9-0.8c0.2-0.3,0.4-0.6,0.4-0.9c0-0.3-0.1-0.6-0.4-0.9
				c-0.4-0.4-0.8-0.6-1.2-0.6c-0.5,0-0.9,0.3-1.3,0.6c-0.4,0.3-0.9,0.6-1.4,0.8C24.3,27,24.1,27,24,27c-0.3,0-0.5-0.1-0.7-0.2
				c-0.3-0.2-0.5-0.5-0.8-0.8c-0.2-0.3-0.4-0.6-0.7-0.9C21.2,24.4,20.5,24,20.4,24.1L20.4,24.1L20.4,24.1z"/>
			<path id="XMLID_175_" class="st3" d="M20.8,26.8C20.8,26.8,20.8,26.8,20.8,26.8c-0.1,0.2-0.2,0.6-0.5,1c-0.2,0.4-0.4,0.9-0.7,1.2
				c-0.6,0.9-1.1,1.4-1.6,1.8l0,0.1c0.5-0.3,1-0.9,1.6-1.8c0.3-0.4,0.6-0.9,0.8-1.4C20.8,27.2,20.9,26.8,20.8,26.8L20.8,26.8
				L20.8,26.8z"/>
			<path id="XMLID_174_" class="st3" d="M16.7,29.3c0,0,2.9,3.1,4.2,4.4c0.8,0.8,2.5,2.4,2.5,2.4l0,0l0,0c0,0,0,0,0,0
				c0.1,0,0.7-0.1,1.5-0.1c0.9,0,1.9,0.1,2.7,0.4c0.4,0.2,0.8,0.4,1,0.7c0.3,0.3,0.4,0.7,0.4,1.2c0,0.2,0,0.4-0.1,0.7
				c0,0.1-0.1,0.1-0.2,0.2c-0.2,0.1-0.4,0.2-0.7,0.2c-0.3,0-0.7,0.1-1.1,0.1c-1.1,0-2.5-0.1-3.6-0.2c-0.6-0.1-1-0.1-1.4-0.2
				c-0.2,0-0.3,0-0.4-0.1c-0.1,0-0.1,0-0.1,0l0,0l0,0c0,0,0,0-0.1-0.1c-0.5-0.5-2.8-2.5-4.4-4.2c-2.2-2.4-4.1-3.9-4.1-3.9l-0.1,0.1
				c0,0,0,0,0.1,0.1c0.4,0.3,2.1,1.8,4,3.8c1.8,1.9,4.6,4.3,4.6,4.3l0,0l0,0c0,0,3.3,0.5,5.6,0.5c0.6,0,1.1,0,1.4-0.1
				c0.2,0,0.3-0.1,0.5-0.2c0.1-0.1,0.2-0.2,0.2-0.3c0.1-0.2,0.1-0.5,0.1-0.7c0-0.5-0.2-0.9-0.4-1.2c-0.4-0.5-1-0.8-1.7-0.9
				c-0.7-0.2-1.5-0.2-2.1-0.2c-0.9,0-1.6,0.1-1.6,0.1l0,0l0,0c0,0,0,0-0.1-0.1c-0.3-0.3-1.8-1.6-2.5-2.3c-0.7-0.6-1.7-1.7-2.6-2.7
				c-0.4-0.5-0.8-0.9-1.1-1.2c-0.1-0.2-0.3-0.3-0.3-0.4C16.8,29.3,16.7,29.3,16.7,29.3L16.7,29.3L16.7,29.3z"/>
			<path id="XMLID_173_" class="st3" d="M7.8,35.4L7.8,35.4C7.8,35.4,7.8,35.4,7.8,35.4c0,0.1,0.1,0.3,0.2,0.4
				c0.2,0.3,0.4,0.6,0.6,1c0.2,0.4,0.3,0.8,0.3,1.1c0,0.3-0.1,0.5-0.3,0.8c-0.2,0.2-0.5,0.4-1,0.6c-0.1,0-0.2,0-0.3,0
				c-0.4,0-0.9-0.2-1.4-0.6c-0.7-0.6-1.4-1.4-1.9-2.3c-0.5-0.9-0.9-1.9-0.9-2.6c0-0.2,0-0.4,0.1-0.6c0.1-0.2,0.2-0.3,0.3-0.4l0,0
				c0.3-0.2,0.6-0.3,0.9-0.3c0.3,0,0.6,0.1,0.8,0.2c0.1,0,0.2,0.1,0.2,0.1c0,0,0,0,0.1,0c0,0,0,0,0,0l0,0l0,0l0,0
				c0,0,1.4-0.4,2.4-0.8c1.7-0.8,2.3-1.3,2.3-1.3l0-0.1l0,0C10.2,30.8,9.6,31.3,8,32c-0.5,0.2-1.1,0.4-1.6,0.6
				c-0.2,0.1-0.4,0.1-0.6,0.2c-0.1,0-0.1,0-0.2,0c0,0-0.1,0-0.1,0l0,0l0,0c0,0-0.5-0.3-1.1-0.3c-0.3,0-0.6,0.1-0.9,0.3l0,0
				c-0.2,0.1-0.3,0.2-0.4,0.4c-0.1,0.2-0.1,0.4-0.1,0.6c0,0.5,0.2,1.1,0.4,1.7c0.4,0.9,1,1.9,1.7,2.6c0.7,0.7,1.5,1.3,2.1,1.3
				c0.1,0,0.2,0,0.3,0c0.5-0.1,0.8-0.3,1-0.6C8.9,38.5,9,38.2,9,37.9c0-0.6-0.3-1.2-0.6-1.6c-0.1-0.2-0.3-0.5-0.4-0.6
				C8,35.6,8,35.5,7.9,35.5C7.9,35.4,7.9,35.4,7.8,35.4C7.9,35.4,7.9,35.4,7.8,35.4L7.8,35.4L7.8,35.4L7.8,35.4z"/>
			<path id="XMLID_172_" class="st3" d="M14.7,32.4C14.7,32.4,14.7,32.4,14.7,32.4c-0.5,0.3-4.3,2.7-7.5,3.2l0,0.1
				c1.7-0.3,3.6-1.1,5-1.8C13.7,33.1,14.7,32.5,14.7,32.4L14.7,32.4L14.7,32.4z"/>
			<path id="XMLID_171_" class="st3" d="M8.7,29.2c-0.9-0.2-2-0.6-3-1.5l0,0c-0.9-0.9-1.5-2-2.1-2.9c-0.3-0.5-0.5-0.9-0.8-1.1
				c-0.3-0.3-0.5-0.5-0.9-0.5c-0.1,0-0.3,0-0.5,0.1l0,0l0,0c-0.3,0.1-0.5,0.5-0.7,0.9c-0.2,0.4-0.3,0.9-0.3,1.5c0,0.9,0.3,2,0.9,3
				C2,29.5,3,30.4,4.5,31l0,0c1.6,0.6,3.1,0.7,4.3,0.7l0-0.1c-1.2,0-2.7-0.1-4.3-0.7l0,0c-1.5-0.5-2.4-1.4-3.1-2.4
				c-0.6-1-0.9-2-0.9-2.9c0-0.6,0.1-1.1,0.3-1.5c0.2-0.4,0.4-0.7,0.7-0.8l0,0c0.2-0.1,0.3-0.1,0.4-0.1c0.3,0,0.6,0.2,0.8,0.4
				c0.4,0.4,0.8,1.1,1.2,1.9c0.4,0.7,1,1.6,1.7,2.2l0,0C6.6,28.7,7.7,29.1,8.7,29.2L8.7,29.2L8.7,29.2z"/>
			<path id="XMLID_170_" class="st3" d="M32.4,15.2c0,0,0.5-0.1,1-0.1c0.3,0,0.6-0.1,0.9-0.2c0.3-0.1,0.6-0.1,0.8-0.2
				c1.1-0.3,1.9-1,1.9-1l-0.2-0.3l0,0c0,0-0.7,0.6-1.8,0.9c-0.2,0.1-0.5,0.1-0.8,0.2c-0.4,0.1-0.9,0.2-1.3,0.2c-0.2,0-0.3,0-0.4,0.1
				c-0.1,0-0.1,0-0.1,0c0,0,0,0,0,0L32.4,15.2L32.4,15.2z"/>
			<path id="XMLID_169_" class="st3" d="M32.4,17.5c0,0,0.3,0.1,0.7,0.3c0.4,0.1,1,0.3,1.5,0.4l0,0l0,0c0.7,0.1,1.3,0.1,1.6,0.1
				c0.2,0,0.2,0,0.3,0l0-0.3l0,0c0,0-0.1,0-0.2,0c-0.3,0-0.8,0-1.6-0.1l0,0l0,0c-0.5-0.1-1.1-0.2-1.5-0.4c-0.2-0.1-0.4-0.1-0.5-0.2
				c-0.1,0-0.1,0-0.1-0.1c0,0,0,0,0,0l0,0l0,0L32.4,17.5L32.4,17.5z"/>
			<path id="XMLID_168_" class="st3" d="M18.7,16.3l-0.1,0.2c0,0,1,0.3,2.2,0.7c0.6,0.2,1.2,0.4,1.8,0.6c0.6,0.2,1.1,0.3,1.5,0.4
				l0,0l0,0c0.8,0.2,1.8,0.4,2.7,0.6c0.9,0.2,1.5,0.3,1.5,0.3l0-0.2l-0.1-0.1l0,0c0,0-0.7,0.8-1.6,1.5c-0.5,0.4-1.1,0.7-1.7,1
				c-0.6,0.3-1.3,0.4-2,0.4c-0.4,0-0.9-0.1-1.3-0.2c-0.6-0.2-1.1-0.4-1.5-0.7c-0.6-0.4-1-0.8-1.2-1.2c-0.2-0.4-0.3-0.9-0.3-1.4
				c0-0.6,0.1-1.2,0.3-1.8L18.7,16.3l-0.1,0.2L18.7,16.3l-0.2-0.1c-0.2,0.6-0.4,1.2-0.4,1.9c0,0.4,0,0.7,0.2,1.1
				c0.2,0.5,0.5,1,1,1.5c0.5,0.4,1.2,0.8,2.2,1.1c0.5,0.2,1,0.2,1.4,0.2c0.8,0,1.5-0.2,2.2-0.5c1-0.4,1.9-1.1,2.5-1.6
				c0.6-0.5,1-0.9,1-1l0.2-0.2l-0.3,0c0,0,0,0-0.1,0c-0.3,0-1-0.2-1.8-0.3c-0.8-0.1-1.7-0.3-2.3-0.5l0,0c-0.4-0.1-0.9-0.3-1.5-0.4
				c-0.9-0.3-1.9-0.6-2.7-0.8c-0.4-0.1-0.7-0.2-1-0.3c-0.1,0-0.2-0.1-0.3-0.1c-0.1,0-0.1,0-0.1,0l-0.2-0.1l-0.1,0.2L18.7,16.3z"/>
			<polyline id="XMLID_167_" class="st3" points="33.1,21.7 33.1,21.7 33.1,21.7 			"/>
		</g>
	</g>
	<polygon class="st5" points="26.5,30 32,30 32.3,30.7 33,31.8 34,32.8 34.4,33.5 34.1,33.9 32.9,34 29.1,34 25.1,34 24.4,33.9 
		24.1,33.3 25,31.9 	"/>
	<polygon class="st6" points="27.6,24.9 30.6,25 30.5,26.3 30.5,27.4 30.9,28.4 32,29.3 31.7,30 28.5,30 26.4,30 27.6,27.6 27.8,27 
		27.6,24.9 	"/>
	<circle class="st5" cx="30.9" cy="23.3" r="0.4"/>
	<circle class="st5" cx="29.2" cy="24" r="0.4"/>
	<circle class="st5" cx="29.3" cy="26.3" r="0.5"/>
	<circle class="st5" cx="28.8" cy="28.6" r="0.5"/>
	<circle class="st6" cx="26.7" cy="32.7" r="0.5"/>
	<circle class="st6" cx="28.5" cy="31.3" r="0.5"/>
	<circle class="st6" cx="31.1" cy="32.7" r="0.5"/>
	<path class="st1" d="M26.7,32.2c-0.3,0-0.6,0.3-0.6,0.6c0,0.3,0.3,0.6,0.6,0.6c0.3,0,0.6-0.3,0.6-0.6S27,32.2,26.7,32.2z
		 M26.7,33.1c-0.2,0-0.3-0.1-0.3-0.3c0-0.2,0.1-0.3,0.3-0.3c0.2,0,0.3,0.1,0.3,0.3C27,32.9,26.9,33.1,26.7,33.1z"/>
	<path class="st1" d="M31,32c-0.4,0-0.7,0.3-0.7,0.7c0,0.4,0.3,0.7,0.7,0.7c0.4,0,0.7-0.3,0.7-0.7C31.7,32.3,31.4,32,31,32z
		 M31,33.1c-0.2,0-0.4-0.2-0.4-0.4c0-0.2,0.2-0.4,0.4-0.4c0.2,0,0.4,0.2,0.4,0.4C31.5,33,31.3,33.1,31,33.1z"/>
	<path class="st1" d="M28.5,30.6c-0.4,0-0.8,0.3-0.8,0.8c0,0.4,0.3,0.8,0.8,0.8c0.4,0,0.8-0.3,0.8-0.8
		C29.3,30.9,28.9,30.6,28.5,30.6z M28.5,31.8c-0.3,0-0.5-0.2-0.5-0.5c0-0.3,0.2-0.5,0.5-0.5c0.3,0,0.5,0.2,0.5,0.5
		C29,31.6,28.8,31.8,28.5,31.8z"/>
	<path class="st1" d="M30,26.3c0-0.4-0.3-0.7-0.7-0.7c-0.4,0-0.7,0.3-0.7,0.7s0.3,0.7,0.7,0.7C29.7,26.9,30,26.6,30,26.3z M29,26.3
		c0-0.2,0.2-0.4,0.4-0.4c0.2,0,0.4,0.2,0.4,0.4c0,0.2-0.2,0.4-0.4,0.4C29.1,26.7,29,26.5,29,26.3z"/>
	<path class="st1" d="M28.7,27.8c-0.4,0-0.7,0.3-0.7,0.7c0,0.4,0.3,0.7,0.7,0.7c0.4,0,0.7-0.3,0.7-0.7
		C29.4,28.2,29.1,27.8,28.7,27.8z M28.7,29c-0.2,0-0.5-0.2-0.5-0.5s0.2-0.5,0.5-0.5c0.3,0,0.5,0.2,0.5,0.5
		C29.1,28.8,28.9,29,28.7,29z"/>
	<path class="st7" d="M31.2,28.5L31.2,28.5c-0.3-0.4-0.5-0.7-0.5-1.6v-1.8l0.1,0c0.1,0,0.2-0.1,0.2-0.2s-0.1-0.2-0.2-0.2h-0.1
		l-3.2,0h-0.1c-0.1,0-0.2,0.1-0.2,0.2c0,0.1,0.1,0.2,0.2,0.2h0.1l0,1.8c0,0.9-0.2,1.1-0.5,1.5l-2.7,3.9c-0.4,0.5-0.5,1.1-0.3,1.5
		c0.2,0.4,0.7,0.6,1.3,0.6l7.5,0c0.6,0,1.1-0.2,1.3-0.6c0.2-0.4,0.1-0.9-0.3-1.5L31.2,28.5z M27.3,28.7L27.3,28.7
		c0.3-0.4,0.5-0.8,0.5-1.8v-1.8l2.5,0l0,1.8c0,1,0.2,1.3,0.5,1.8l0.8,1.1l-5.1,0L27.3,28.7z M33.8,33.7c-0.1,0.3-0.5,0.4-1,0.4
		l-7.5,0c-0.5,0-0.8-0.2-1-0.4c-0.1-0.3,0-0.7,0.2-1.1l1.7-2.5l5.5,0l1.7,2.5C33.8,33,33.9,33.4,33.8,33.7z"/>
	<path class="st1" d="M31.6,23.3c0-0.4-0.3-0.7-0.7-0.7c-0.4,0-0.7,0.3-0.7,0.7s0.3,0.7,0.7,0.7C31.3,24,31.6,23.7,31.6,23.3z
		 M30.5,23.3c0-0.2,0.2-0.4,0.4-0.4c0.2,0,0.4,0.2,0.4,0.4c0,0.2-0.2,0.4-0.4,0.4C30.7,23.7,30.5,23.5,30.5,23.3z"/>
	<path class="st1" d="M29.8,23.9c0-0.3-0.3-0.6-0.6-0.6c-0.3,0-0.6,0.3-0.6,0.6c0,0.3,0.3,0.6,0.6,0.6
		C29.6,24.5,29.8,24.2,29.8,23.9z M29,23.9c0-0.2,0.1-0.3,0.3-0.3c0.2,0,0.3,0.1,0.3,0.3c0,0.2-0.1,0.3-0.3,0.3
		C29.1,24.2,29,24.1,29,23.9z"/>
</g>
</svg>
